<mxfile host="app.diagrams.net" modified="2020-06-12T07:02:56.621Z" agent="5.0 (Windows NT 10.0; Win64; x64) AppleWebKit/537.36 (KHTML, like Gecko) Chrome/83.0.4103.97 Safari/537.36 Edg/83.0.478.45" etag="LaLE4ls9fYYD0sle0v-9" version="13.2.3" type="github">
  <diagram id="CqEtraTenlA_N6H4eD-H" name="Page-1">
    <mxGraphModel dx="1483" dy="783" grid="1" gridSize="10" guides="1" tooltips="1" connect="1" arrows="1" fold="1" page="1" pageScale="1" pageWidth="850" pageHeight="1100" math="0" shadow="0">
      <root>
        <mxCell id="0" />
        <mxCell id="1" parent="0" />
        <mxCell id="PUXEqd44bCyLoYofm2tb-18" style="edgeStyle=orthogonalEdgeStyle;rounded=0;orthogonalLoop=1;jettySize=auto;html=1;entryX=0.5;entryY=0;entryDx=0;entryDy=0;" parent="1" source="PUXEqd44bCyLoYofm2tb-2" target="PUXEqd44bCyLoYofm2tb-17" edge="1">
          <mxGeometry relative="1" as="geometry" />
        </mxCell>
        <mxCell id="ehHRDd-65qSK5LdmBrJg-14" style="edgeStyle=orthogonalEdgeStyle;rounded=0;orthogonalLoop=1;jettySize=auto;html=1;exitX=0.014;exitY=0.337;exitDx=0;exitDy=0;exitPerimeter=0;" edge="1" parent="1" source="PUXEqd44bCyLoYofm2tb-2" target="ehHRDd-65qSK5LdmBrJg-1">
          <mxGeometry relative="1" as="geometry" />
        </mxCell>
        <mxCell id="PUXEqd44bCyLoYofm2tb-2" value="Catalyst&lt;br&gt;REST Funtion" style="ellipse;whiteSpace=wrap;html=1;" parent="1" vertex="1">
          <mxGeometry x="246.5" y="300" width="120" height="80" as="geometry" />
        </mxCell>
        <mxCell id="PUXEqd44bCyLoYofm2tb-14" style="edgeStyle=orthogonalEdgeStyle;rounded=0;orthogonalLoop=1;jettySize=auto;html=1;" parent="1" source="PUXEqd44bCyLoYofm2tb-4" target="PUXEqd44bCyLoYofm2tb-13" edge="1">
          <mxGeometry relative="1" as="geometry">
            <Array as="points">
              <mxPoint x="309" y="800" />
              <mxPoint x="210" y="800" />
            </Array>
          </mxGeometry>
        </mxCell>
        <mxCell id="PUXEqd44bCyLoYofm2tb-4" value="Cliq slash command&lt;br&gt;or&amp;nbsp;&lt;br&gt;message action&amp;nbsp;" style="rounded=1;whiteSpace=wrap;html=1;" parent="1" vertex="1">
          <mxGeometry x="249" y="720" width="120" height="60" as="geometry" />
        </mxCell>
        <mxCell id="PUXEqd44bCyLoYofm2tb-5" value="" style="endArrow=classic;html=1;entryX=0.5;entryY=1;entryDx=0;entryDy=0;" parent="1" source="PUXEqd44bCyLoYofm2tb-4" target="PUXEqd44bCyLoYofm2tb-2" edge="1">
          <mxGeometry width="50" height="50" relative="1" as="geometry">
            <mxPoint x="519" y="480" as="sourcePoint" />
            <mxPoint x="569" y="430" as="targetPoint" />
          </mxGeometry>
        </mxCell>
        <mxCell id="PUXEqd44bCyLoYofm2tb-6" value="&lt;b&gt;Request &lt;/b&gt;- POST&lt;br&gt;&lt;div&gt;&lt;b&gt;Body &lt;br&gt;&lt;/b&gt;&lt;span&gt;webhookUrl&lt;/span&gt;&lt;/div&gt;&lt;div&gt;&lt;span&gt;message&lt;/span&gt;&lt;/div&gt;&lt;div&gt;&lt;span&gt;scheduledTimestamp&lt;br&gt;sender&lt;br&gt;recipient&lt;br&gt;&lt;/span&gt;&lt;/div&gt;&lt;div&gt;&lt;span&gt;recipientType (Channel/User)&lt;br&gt;&lt;/span&gt;&lt;/div&gt;" style="text;html=1;strokeColor=none;fillColor=none;align=center;verticalAlign=middle;whiteSpace=wrap;rounded=0;" parent="1" vertex="1">
          <mxGeometry x="130" y="530" width="180" height="170" as="geometry" />
        </mxCell>
        <mxCell id="PUXEqd44bCyLoYofm2tb-7" value="&lt;b&gt;&lt;font color=&quot;#ff0000&quot;&gt;Check To Be&amp;nbsp;&lt;/font&gt;&lt;/b&gt;&lt;font color=&quot;#ff0000&quot;&gt;&lt;b&gt;Made&lt;/b&gt;&lt;/font&gt;&lt;br&gt;&lt;b&gt;Scheduled Timestamp&lt;/b&gt;&lt;br&gt;should be more than &lt;b&gt;Current Timestamp&lt;/b&gt;&lt;br&gt;&amp;nbsp;" style="rounded=1;whiteSpace=wrap;html=1;" parent="1" vertex="1">
          <mxGeometry x="149" y="400" width="142" height="115" as="geometry" />
        </mxCell>
        <mxCell id="PUXEqd44bCyLoYofm2tb-10" value="" style="endArrow=classic;html=1;exitX=0.742;exitY=0.975;exitDx=0;exitDy=0;exitPerimeter=0;" parent="1" source="PUXEqd44bCyLoYofm2tb-2" edge="1">
          <mxGeometry width="50" height="50" relative="1" as="geometry">
            <mxPoint x="519" y="580" as="sourcePoint" />
            <mxPoint x="339" y="719" as="targetPoint" />
          </mxGeometry>
        </mxCell>
        <mxCell id="PUXEqd44bCyLoYofm2tb-11" value="&lt;b&gt;Response&lt;/b&gt;&lt;br&gt;status - 201&lt;br&gt;" style="text;html=1;strokeColor=none;fillColor=none;align=center;verticalAlign=middle;whiteSpace=wrap;rounded=0;" parent="1" vertex="1">
          <mxGeometry x="349" y="545" width="120" height="140" as="geometry" />
        </mxCell>
        <mxCell id="PUXEqd44bCyLoYofm2tb-13" value="Cliq&lt;br&gt;Storage for storing userId and zapi key" style="shape=cylinder;whiteSpace=wrap;html=1;boundedLbl=1;backgroundOutline=1;" parent="1" vertex="1">
          <mxGeometry x="230" y="940" width="110" height="100" as="geometry" />
        </mxCell>
        <mxCell id="PUXEqd44bCyLoYofm2tb-16" value="To store the&lt;br&gt;details about &lt;br&gt;&lt;ul&gt;&lt;li style=&quot;text-align: left&quot;&gt;&lt;b style=&quot;font-weight: bold&quot;&gt;User Id (&lt;/b&gt;&lt;i&gt;Indexed for faster search&lt;/i&gt;&lt;b style=&quot;font-weight: bold&quot;&gt;)&lt;/b&gt;&lt;/li&gt;&lt;li style=&quot;font-weight: bold ; text-align: left&quot;&gt;&lt;b&gt;scheduled message&lt;/b&gt;&lt;/li&gt;&lt;li style=&quot;font-weight: bold ; text-align: left&quot;&gt;&lt;b&gt;Cron Id&lt;/b&gt;&lt;/li&gt;&lt;li style=&quot;font-weight: bold ; text-align: left&quot;&gt;&lt;b&gt;scheduled Timestamp&lt;/b&gt;&lt;/li&gt;&lt;/ul&gt;" style="text;html=1;strokeColor=none;fillColor=none;align=center;verticalAlign=middle;whiteSpace=wrap;rounded=0;" parent="1" vertex="1">
          <mxGeometry x="50" y="220" width="125" height="120" as="geometry" />
        </mxCell>
        <mxCell id="PUXEqd44bCyLoYofm2tb-30" style="edgeStyle=orthogonalEdgeStyle;rounded=0;orthogonalLoop=1;jettySize=auto;html=1;" parent="1" source="PUXEqd44bCyLoYofm2tb-17" target="PUXEqd44bCyLoYofm2tb-19" edge="1">
          <mxGeometry relative="1" as="geometry" />
        </mxCell>
        <mxCell id="ehHRDd-65qSK5LdmBrJg-19" style="edgeStyle=orthogonalEdgeStyle;rounded=0;orthogonalLoop=1;jettySize=auto;html=1;entryX=1;entryY=0.5;entryDx=0;entryDy=0;" edge="1" parent="1" source="PUXEqd44bCyLoYofm2tb-17" target="PUXEqd44bCyLoYofm2tb-2">
          <mxGeometry relative="1" as="geometry">
            <Array as="points">
              <mxPoint x="679" y="150" />
              <mxPoint x="493" y="150" />
              <mxPoint x="493" y="340" />
            </Array>
          </mxGeometry>
        </mxCell>
        <mxCell id="PUXEqd44bCyLoYofm2tb-17" value="&lt;b&gt;Catalyst Cron&amp;nbsp;Daemon&lt;/b&gt;" style="ellipse;whiteSpace=wrap;html=1;" parent="1" vertex="1">
          <mxGeometry x="619" y="170" width="120" height="80" as="geometry" />
        </mxCell>
        <mxCell id="PUXEqd44bCyLoYofm2tb-31" style="edgeStyle=orthogonalEdgeStyle;rounded=0;orthogonalLoop=1;jettySize=auto;html=1;entryX=0.5;entryY=1;entryDx=0;entryDy=0;" parent="1" source="PUXEqd44bCyLoYofm2tb-19" target="PUXEqd44bCyLoYofm2tb-17" edge="1">
          <mxGeometry relative="1" as="geometry" />
        </mxCell>
        <mxCell id="ehHRDd-65qSK5LdmBrJg-26" style="edgeStyle=orthogonalEdgeStyle;rounded=0;orthogonalLoop=1;jettySize=auto;html=1;" edge="1" parent="1" source="PUXEqd44bCyLoYofm2tb-19" target="ehHRDd-65qSK5LdmBrJg-25">
          <mxGeometry relative="1" as="geometry" />
        </mxCell>
        <mxCell id="PUXEqd44bCyLoYofm2tb-19" value="&lt;b&gt;Incoming extension webhook handler&lt;/b&gt;&lt;br&gt;will post the message in channel or to user on scheduled&amp;nbsp;time" style="rounded=1;whiteSpace=wrap;html=1;" parent="1" vertex="1">
          <mxGeometry x="584" y="560" width="190" height="90" as="geometry" />
        </mxCell>
        <mxCell id="PUXEqd44bCyLoYofm2tb-22" value="&lt;b&gt;Request&lt;/b&gt; - POST&lt;br&gt;&lt;b&gt;Body&lt;/b&gt;&lt;br&gt;message&lt;br&gt;sender&lt;br&gt;recipient&lt;br&gt;&amp;nbsp;recipientType&lt;br&gt;cronId&lt;br&gt;cronName" style="text;html=1;strokeColor=none;fillColor=none;align=center;verticalAlign=middle;whiteSpace=wrap;rounded=0;" parent="1" vertex="1">
          <mxGeometry x="684" y="330" width="110" height="140" as="geometry" />
        </mxCell>
        <mxCell id="PUXEqd44bCyLoYofm2tb-29" value="" style="endArrow=classic;html=1;entryX=0.954;entryY=0.763;entryDx=0;entryDy=0;entryPerimeter=0;exitX=0;exitY=0.75;exitDx=0;exitDy=0;" parent="1" source="PUXEqd44bCyLoYofm2tb-19" target="PUXEqd44bCyLoYofm2tb-2" edge="1">
          <mxGeometry width="50" height="50" relative="1" as="geometry">
            <mxPoint x="579" y="600" as="sourcePoint" />
            <mxPoint x="579" y="430" as="targetPoint" />
          </mxGeometry>
        </mxCell>
        <mxCell id="PUXEqd44bCyLoYofm2tb-35" value="&lt;b&gt;Request - &lt;/b&gt;DELETE&lt;br&gt;&lt;b&gt;Params - &lt;/b&gt;cronID&lt;br&gt;&lt;br&gt;&lt;b&gt;Delete&lt;/b&gt;&amp;nbsp;Record after execution of cron from Catalyst Data store." style="text;html=1;strokeColor=none;fillColor=none;align=center;verticalAlign=middle;whiteSpace=wrap;rounded=0;" parent="1" vertex="1">
          <mxGeometry x="475" y="420" width="171" height="90" as="geometry" />
        </mxCell>
        <mxCell id="PUXEqd44bCyLoYofm2tb-42" value="Node request handler which will create&amp;nbsp;&lt;br&gt;CRON to make POST request to incoming extension URL&lt;br&gt;with required details&lt;br&gt;at &lt;b&gt;scheduled time.&lt;/b&gt;" style="text;html=1;strokeColor=none;fillColor=none;align=center;verticalAlign=middle;whiteSpace=wrap;rounded=0;" parent="1" vertex="1">
          <mxGeometry x="330" y="190" width="130" height="100" as="geometry" />
        </mxCell>
        <mxCell id="ehHRDd-65qSK5LdmBrJg-16" style="edgeStyle=orthogonalEdgeStyle;rounded=0;orthogonalLoop=1;jettySize=auto;html=1;exitX=0.5;exitY=1;exitDx=0;exitDy=0;entryX=0.023;entryY=0.352;entryDx=0;entryDy=0;entryPerimeter=0;" edge="1" parent="1" source="ehHRDd-65qSK5LdmBrJg-1" target="PUXEqd44bCyLoYofm2tb-2">
          <mxGeometry relative="1" as="geometry" />
        </mxCell>
        <mxCell id="ehHRDd-65qSK5LdmBrJg-1" value="Catalyst&lt;br&gt;Data Store" style="shape=cylinder;whiteSpace=wrap;html=1;boundedLbl=1;backgroundOutline=1;" vertex="1" parent="1">
          <mxGeometry x="175" y="150" width="90" height="100" as="geometry" />
        </mxCell>
        <mxCell id="ehHRDd-65qSK5LdmBrJg-9" value="&lt;b&gt;1&lt;/b&gt;" style="text;html=1;align=center;verticalAlign=middle;resizable=0;points=[];autosize=1;" vertex="1" parent="1">
          <mxGeometry x="220" y="740" width="20" height="20" as="geometry" />
        </mxCell>
        <mxCell id="ehHRDd-65qSK5LdmBrJg-10" value="&lt;b&gt;2&lt;/b&gt;" style="text;html=1;align=center;verticalAlign=middle;resizable=0;points=[];autosize=1;" vertex="1" parent="1">
          <mxGeometry x="220" y="330" width="20" height="20" as="geometry" />
        </mxCell>
        <mxCell id="ehHRDd-65qSK5LdmBrJg-17" value="&lt;b&gt;3&lt;/b&gt;" style="text;html=1;align=center;verticalAlign=middle;resizable=0;points=[];autosize=1;" vertex="1" parent="1">
          <mxGeometry x="149" y="190" width="20" height="20" as="geometry" />
        </mxCell>
        <mxCell id="ehHRDd-65qSK5LdmBrJg-18" value="&lt;b&gt;4&lt;/b&gt;" style="text;html=1;align=center;verticalAlign=middle;resizable=0;points=[];autosize=1;" vertex="1" parent="1">
          <mxGeometry x="590" y="200" width="20" height="20" as="geometry" />
        </mxCell>
        <mxCell id="ehHRDd-65qSK5LdmBrJg-21" value="&lt;b&gt;5&lt;/b&gt;" style="text;html=1;align=center;verticalAlign=middle;resizable=0;points=[];autosize=1;" vertex="1" parent="1">
          <mxGeometry x="780" y="595" width="20" height="20" as="geometry" />
        </mxCell>
        <mxCell id="ehHRDd-65qSK5LdmBrJg-24" value="&lt;b&gt;&lt;font color=&quot;#ff0000&quot;&gt;Note&lt;/font&gt;&lt;br&gt;This Table is maintained for users to know about their scheduled message and having option to delete a scheduled message if needed.&lt;br&gt;&lt;/b&gt;" style="rounded=0;whiteSpace=wrap;html=1;" vertex="1" parent="1">
          <mxGeometry x="140" y="30" width="170" height="110" as="geometry" />
        </mxCell>
        <mxCell id="ehHRDd-65qSK5LdmBrJg-25" value="Message get posted to cliq channel or contact as requested." style="rounded=0;whiteSpace=wrap;html=1;" vertex="1" parent="1">
          <mxGeometry x="619" y="800" width="120" height="90" as="geometry" />
        </mxCell>
        <mxCell id="ehHRDd-65qSK5LdmBrJg-27" value="&lt;b&gt;6&lt;/b&gt;" style="text;html=1;align=center;verticalAlign=middle;resizable=0;points=[];autosize=1;" vertex="1" parent="1">
          <mxGeometry x="754" y="835" width="20" height="20" as="geometry" />
        </mxCell>
        <mxCell id="ehHRDd-65qSK5LdmBrJg-29" value="Only happen once when user tries for first time." style="text;html=1;strokeColor=none;fillColor=none;align=center;verticalAlign=middle;whiteSpace=wrap;rounded=0;" vertex="1" parent="1">
          <mxGeometry x="90" y="930" width="110" height="60" as="geometry" />
        </mxCell>
      </root>
    </mxGraphModel>
  </diagram>
</mxfile>
